<svg xmlns="http://www.w3.org/2000/svg" xmlns:xlink="http://www.w3.org/1999/xlink" contentStyleType="text/css" height="893px" preserveAspectRatio="none" style="width:1396px;height:893px;background:#FFFFFF;" version="1.1" viewBox="0 0 1396 893" width="1396px" zoomAndPan="magnify"><defs/><g><!--class WalletType--><g id="elem_WalletType"><rect codeLine="1" fill="#F1F1F1" height="96.8906" id="WalletType" rx="2.5" ry="2.5" style="stroke:#181818;stroke-width:0.5;" width="147.666" x="254.51" y="7"/><ellipse cx="286.1714" cy="23" fill="#ADD1B2" rx="11" ry="11" style="stroke:#181818;stroke-width:1;"/><path d="M289.1402,28.6406 Q288.5621,28.9375 287.9214,29.0781 Q287.2808,29.2344 286.5777,29.2344 Q284.0777,29.2344 282.7496,27.5938 Q281.4371,25.9375 281.4371,22.8125 Q281.4371,19.6875 282.7496,18.0313 Q284.0777,16.375 286.5777,16.375 Q287.2808,16.375 287.9214,16.5313 Q288.5777,16.6875 289.1402,16.9844 L289.1402,19.7031 Q288.5152,19.125 287.9214,18.8594 Q287.3277,18.5781 286.7027,18.5781 Q285.3589,18.5781 284.6714,19.6563 Q283.9839,20.7188 283.9839,22.8125 Q283.9839,24.9063 284.6714,25.9844 Q285.3589,27.0469 286.7027,27.0469 Q287.3277,27.0469 287.9214,26.7813 Q288.5152,26.5 289.1402,25.9219 L289.1402,28.6406 Z " fill="#000000"/><text fill="#000000" font-family="sans-serif" font-size="14" lengthAdjust="spacing" textLength="78.6406" x="303.874" y="27.8467">WalletType</text><line style="stroke:#181818;stroke-width:0.5;" x1="255.51" x2="401.176" y1="39" y2="39"/><ellipse cx="265.51" cy="52.6484" fill="none" rx="3" ry="3" style="stroke:#038048;stroke-width:1;"/><text fill="#000000" font-family="sans-serif" font-size="14" lengthAdjust="spacing" textLength="49.5469" x="274.51" y="55.9951">id : INT</text><line style="stroke:#181818;stroke-width:0.5;" x1="255.51" x2="401.176" y1="63.2969" y2="63.2969"/><ellipse cx="265.51" cy="76.9453" fill="#84BE84" rx="3" ry="3" style="stroke:#038048;stroke-width:1;"/><text fill="#000000" font-family="sans-serif" font-size="14" lengthAdjust="spacing" textLength="121.666" x="274.51" y="80.292">name : CHAR(50)</text><ellipse cx="265.51" cy="93.2422" fill="#84BE84" rx="3" ry="3" style="stroke:#038048;stroke-width:1;"/><text fill="#000000" font-family="sans-serif" font-size="14" lengthAdjust="spacing" textLength="110.9883" x="274.51" y="96.5889">icon : CHAR(30)</text></g><!--class Wallet--><g id="elem_Wallet"><rect codeLine="7" fill="#F1F1F1" height="129.4844" id="Wallet" rx="2.5" ry="2.5" style="stroke:#181818;stroke-width:0.5;" width="157.8242" x="249.43" y="205.33"/><ellipse cx="301.9403" cy="221.33" fill="#ADD1B2" rx="11" ry="11" style="stroke:#181818;stroke-width:1;"/><path d="M304.909,226.9706 Q304.3309,227.2675 303.6903,227.4081 Q303.0496,227.5644 302.3465,227.5644 Q299.8465,227.5644 298.5184,225.9237 Q297.2059,224.2675 297.2059,221.1425 Q297.2059,218.0175 298.5184,216.3612 Q299.8465,214.705 302.3465,214.705 Q303.0496,214.705 303.6903,214.8612 Q304.3465,215.0175 304.909,215.3144 L304.909,218.0331 Q304.284,217.455 303.6903,217.1894 Q303.0965,216.9081 302.4715,216.9081 Q301.1278,216.9081 300.4403,217.9862 Q299.7528,219.0487 299.7528,221.1425 Q299.7528,223.2362 300.4403,224.3144 Q301.1278,225.3769 302.4715,225.3769 Q303.0965,225.3769 303.6903,225.1112 Q304.284,224.83 304.909,224.2519 L304.909,226.9706 Z " fill="#000000"/><text fill="#000000" font-family="sans-serif" font-size="14" lengthAdjust="spacing" textLength="44.3037" x="322.4403" y="226.1767">Wallet</text><line style="stroke:#181818;stroke-width:0.5;" x1="250.43" x2="406.2542" y1="237.33" y2="237.33"/><ellipse cx="260.43" cy="250.9784" fill="none" rx="3" ry="3" style="stroke:#038048;stroke-width:1;"/><text fill="#000000" font-family="sans-serif" font-size="14" lengthAdjust="spacing" textLength="49.5469" x="269.43" y="254.3251">id : INT</text><ellipse cx="260.43" cy="267.2753" fill="none" rx="3" ry="3" style="stroke:#038048;stroke-width:1;"/><text fill="#000000" font-family="sans-serif" font-size="14" lengthAdjust="spacing" textLength="87.8213" x="269.43" y="270.622">type_id : INT</text><ellipse cx="260.43" cy="283.5722" fill="none" rx="3" ry="3" style="stroke:#038048;stroke-width:1;"/><text fill="#000000" font-family="sans-serif" font-size="14" lengthAdjust="spacing" textLength="104.6855" x="269.43" y="286.9189">balance : REAL</text><ellipse cx="260.43" cy="299.8691" fill="none" rx="3" ry="3" style="stroke:#038048;stroke-width:1;"/><text fill="#000000" font-family="sans-serif" font-size="14" lengthAdjust="spacing" textLength="131.8242" x="269.43" y="303.2157">is_archived : BOOL</text><line style="stroke:#181818;stroke-width:0.5;" x1="250.43" x2="406.2542" y1="310.5175" y2="310.5175"/><ellipse cx="260.43" cy="324.1659" fill="#84BE84" rx="3" ry="3" style="stroke:#038048;stroke-width:1;"/><text fill="#000000" font-family="sans-serif" font-size="14" lengthAdjust="spacing" textLength="121.666" x="269.43" y="327.5126">name : CHAR(50)</text></g><!--class RecurringTransaction--><g id="elem_RecurringTransaction"><rect codeLine="15" fill="#F1F1F1" height="227.2656" id="RecurringTransaction" rx="2.5" ry="2.5" style="stroke:#181818;stroke-width:0.5;" width="409.373" x="749.65" y="436.26"/><ellipse cx="874.9767" cy="452.26" fill="#ADD1B2" rx="11" ry="11" style="stroke:#181818;stroke-width:1;"/><path d="M877.9454,457.9006 Q877.3673,458.1975 876.7267,458.3381 Q876.086,458.4944 875.3829,458.4944 Q872.8829,458.4944 871.5548,456.8537 Q870.2423,455.1975 870.2423,452.0725 Q870.2423,448.9475 871.5548,447.2912 Q872.8829,445.635 875.3829,445.635 Q876.086,445.635 876.7267,445.7912 Q877.3829,445.9475 877.9454,446.2444 L877.9454,448.9631 Q877.3204,448.385 876.7267,448.1194 Q876.1329,447.8381 875.5079,447.8381 Q874.1642,447.8381 873.4767,448.9162 Q872.7892,449.9787 872.7892,452.0725 Q872.7892,454.1662 873.4767,455.2444 Q874.1642,456.3069 875.5079,456.3069 Q876.1329,456.3069 876.7267,456.0412 Q877.3204,455.76 877.9454,455.1819 L877.9454,457.9006 Z " fill="#000000"/><text fill="#000000" font-family="sans-serif" font-size="14" lengthAdjust="spacing" textLength="150.2197" x="895.4767" y="457.1067">RecurringTransaction</text><line style="stroke:#181818;stroke-width:0.5;" x1="750.65" x2="1158.023" y1="468.26" y2="468.26"/><ellipse cx="760.65" cy="481.9084" fill="none" rx="3" ry="3" style="stroke:#038048;stroke-width:1;"/><text fill="#000000" font-family="sans-serif" font-size="14" lengthAdjust="spacing" textLength="49.5469" x="769.65" y="485.2551">id : INT</text><ellipse cx="760.65" cy="498.2053" fill="none" rx="3" ry="3" style="stroke:#038048;stroke-width:1;"/><text fill="#000000" font-family="sans-serif" font-size="14" lengthAdjust="spacing" textLength="98.458" x="769.65" y="501.552">wallet_id : INT</text><ellipse cx="760.65" cy="514.5022" fill="none" rx="3" ry="3" style="stroke:#038048;stroke-width:1;"/><text fill="#000000" font-family="sans-serif" font-size="14" lengthAdjust="spacing" textLength="118.4189" x="769.65" y="517.8489">category_id : INT</text><ellipse cx="760.65" cy="530.7991" fill="none" rx="3" ry="3" style="stroke:#038048;stroke-width:1;"/><text fill="#000000" font-family="sans-serif" font-size="14" lengthAdjust="spacing" textLength="103.585" x="769.65" y="534.1457">amount : REAL</text><ellipse cx="760.65" cy="547.0959" fill="none" rx="3" ry="3" style="stroke:#038048;stroke-width:1;"/><text fill="#000000" font-family="sans-serif" font-size="14" lengthAdjust="spacing" textLength="122.5479" x="769.65" y="550.4426">start_date : DATE</text><ellipse cx="760.65" cy="563.3928" fill="none" rx="3" ry="3" style="stroke:#038048;stroke-width:1;"/><text fill="#000000" font-family="sans-serif" font-size="14" lengthAdjust="spacing" textLength="116.3135" x="769.65" y="566.7395">end_date : DATE</text><ellipse cx="760.65" cy="579.6897" fill="none" rx="3" ry="3" style="stroke:#038048;stroke-width:1;"/><text fill="#000000" font-family="sans-serif" font-size="14" lengthAdjust="spacing" textLength="154.5742" x="769.65" y="583.0364">next_due_date : DATE</text><line style="stroke:#181818;stroke-width:0.5;" x1="750.65" x2="1158.023" y1="590.3381" y2="590.3381"/><ellipse cx="760.65" cy="603.9866" fill="#84BE84" rx="3" ry="3" style="stroke:#038048;stroke-width:1;"/><text fill="#000000" font-family="sans-serif" font-size="14" lengthAdjust="spacing" textLength="226.6113" x="769.65" y="607.3332">type : ENUM(INCOME, EXPENSE)</text><ellipse cx="760.65" cy="620.2834" fill="#84BE84" rx="3" ry="3" style="stroke:#038048;stroke-width:1;"/><text fill="#000000" font-family="sans-serif" font-size="14" lengthAdjust="spacing" textLength="159.8037" x="769.65" y="623.6301">description : CHAR(50)</text><ellipse cx="760.65" cy="636.5803" fill="#84BE84" rx="3" ry="3" style="stroke:#038048;stroke-width:1;"/><text fill="#000000" font-family="sans-serif" font-size="14" lengthAdjust="spacing" textLength="233.6182" x="769.65" y="639.927">status : ENUM(ACTIVE, INACTIVE)</text><ellipse cx="760.65" cy="652.8772" fill="#84BE84" rx="3" ry="3" style="stroke:#038048;stroke-width:1;"/><text fill="#000000" font-family="sans-serif" font-size="14" lengthAdjust="spacing" textLength="383.373" x="769.65" y="656.2239">frequency : ENUM(DAILY, WEEKLY, MONTHLY, YEARLY)</text></g><!--class WalletTransaction--><g id="elem_WalletTransaction"><rect codeLine="29" fill="#F1F1F1" height="178.375" id="WalletTransaction" rx="2.5" ry="2.5" style="stroke:#181818;stroke-width:0.5;" width="292.9775" x="421.85" y="460.71"/><ellipse cx="500.8632" cy="476.71" fill="#ADD1B2" rx="11" ry="11" style="stroke:#181818;stroke-width:1;"/><path d="M503.8319,482.3506 Q503.2538,482.6475 502.6132,482.7881 Q501.9726,482.9444 501.2694,482.9444 Q498.7694,482.9444 497.4413,481.3037 Q496.1288,479.6475 496.1288,476.5225 Q496.1288,473.3975 497.4413,471.7412 Q498.7694,470.085 501.2694,470.085 Q501.9726,470.085 502.6132,470.2412 Q503.2694,470.3975 503.8319,470.6944 L503.8319,473.4131 Q503.2069,472.835 502.6132,472.5694 Q502.0194,472.2881 501.3944,472.2881 Q500.0507,472.2881 499.3632,473.3662 Q498.6757,474.4287 498.6757,476.5225 Q498.6757,478.6162 499.3632,479.6944 Q500.0507,480.7569 501.3944,480.7569 Q502.0194,480.7569 502.6132,480.4912 Q503.2069,480.21 503.8319,479.6319 L503.8319,482.3506 Z " fill="#000000"/><text fill="#000000" font-family="sans-serif" font-size="14" lengthAdjust="spacing" textLength="126.4512" x="521.3632" y="481.5567">WalletTransaction</text><line style="stroke:#181818;stroke-width:0.5;" x1="422.85" x2="713.8275" y1="492.71" y2="492.71"/><ellipse cx="432.85" cy="506.3584" fill="none" rx="3" ry="3" style="stroke:#038048;stroke-width:1;"/><text fill="#000000" font-family="sans-serif" font-size="14" lengthAdjust="spacing" textLength="49.5469" x="441.85" y="509.7051">id : INT</text><ellipse cx="432.85" cy="522.6553" fill="none" rx="3" ry="3" style="stroke:#038048;stroke-width:1;"/><text fill="#000000" font-family="sans-serif" font-size="14" lengthAdjust="spacing" textLength="98.458" x="441.85" y="526.002">wallet_id : INT</text><ellipse cx="432.85" cy="538.9522" fill="none" rx="3" ry="3" style="stroke:#038048;stroke-width:1;"/><text fill="#000000" font-family="sans-serif" font-size="14" lengthAdjust="spacing" textLength="118.4189" x="441.85" y="542.2989">category_id : INT</text><ellipse cx="432.85" cy="555.2491" fill="none" rx="3" ry="3" style="stroke:#038048;stroke-width:1;"/><text fill="#000000" font-family="sans-serif" font-size="14" lengthAdjust="spacing" textLength="82.9404" x="441.85" y="558.5957">date : DATE</text><ellipse cx="432.85" cy="571.5459" fill="none" rx="3" ry="3" style="stroke:#038048;stroke-width:1;"/><text fill="#000000" font-family="sans-serif" font-size="14" lengthAdjust="spacing" textLength="103.585" x="441.85" y="574.8926">amount : REAL</text><line style="stroke:#181818;stroke-width:0.5;" x1="422.85" x2="713.8275" y1="582.1944" y2="582.1944"/><ellipse cx="432.85" cy="595.8428" fill="#84BE84" rx="3" ry="3" style="stroke:#038048;stroke-width:1;"/><text fill="#000000" font-family="sans-serif" font-size="14" lengthAdjust="spacing" textLength="226.6113" x="441.85" y="599.1895">type : ENUM(INCOME, EXPENSE)</text><ellipse cx="432.85" cy="612.1397" fill="#84BE84" rx="3" ry="3" style="stroke:#038048;stroke-width:1;"/><text fill="#000000" font-family="sans-serif" font-size="14" lengthAdjust="spacing" textLength="266.9775" x="441.85" y="615.4864">status : ENUM(PENDING, CONFIRMED)</text><ellipse cx="432.85" cy="628.4366" fill="#84BE84" rx="3" ry="3" style="stroke:#038048;stroke-width:1;"/><text fill="#000000" font-family="sans-serif" font-size="14" lengthAdjust="spacing" textLength="159.8037" x="441.85" y="631.7832">description : CHAR(50)</text></g><!--class Transfer--><g id="elem_Transfer"><rect codeLine="40" fill="#F1F1F1" height="145.7813" id="Transfer" rx="2.5" ry="2.5" style="stroke:#181818;stroke-width:0.5;" width="188.6816" x="7" y="477.01"/><ellipse cx="67.915" cy="493.01" fill="#ADD1B2" rx="11" ry="11" style="stroke:#181818;stroke-width:1;"/><path d="M70.8838,498.6506 Q70.3057,498.9475 69.665,499.0881 Q69.0244,499.2444 68.3213,499.2444 Q65.8213,499.2444 64.4932,497.6037 Q63.1807,495.9475 63.1807,492.8225 Q63.1807,489.6975 64.4932,488.0412 Q65.8213,486.385 68.3213,486.385 Q69.0244,486.385 69.665,486.5412 Q70.3213,486.6975 70.8838,486.9944 L70.8838,489.7131 Q70.2588,489.135 69.665,488.8694 Q69.0713,488.5881 68.4463,488.5881 Q67.1025,488.5881 66.415,489.6662 Q65.7275,490.7287 65.7275,492.8225 Q65.7275,494.9162 66.415,495.9944 Q67.1025,497.0569 68.4463,497.0569 Q69.0713,497.0569 69.665,496.7912 Q70.2588,496.51 70.8838,495.9319 L70.8838,498.6506 Z " fill="#000000"/><text fill="#000000" font-family="sans-serif" font-size="14" lengthAdjust="spacing" textLength="58.3516" x="88.415" y="497.8567">Transfer</text><line style="stroke:#181818;stroke-width:0.5;" x1="8" x2="194.6816" y1="509.01" y2="509.01"/><ellipse cx="18" cy="522.6584" fill="none" rx="3" ry="3" style="stroke:#038048;stroke-width:1;"/><text fill="#000000" font-family="sans-serif" font-size="14" lengthAdjust="spacing" textLength="49.5469" x="27" y="526.0051">id : INT</text><ellipse cx="18" cy="538.9553" fill="none" rx="3" ry="3" style="stroke:#038048;stroke-width:1;"/><text fill="#000000" font-family="sans-serif" font-size="14" lengthAdjust="spacing" textLength="153.4941" x="27" y="542.302">sender_wallet_id : INT</text><ellipse cx="18" cy="555.2522" fill="none" rx="3" ry="3" style="stroke:#038048;stroke-width:1;"/><text fill="#000000" font-family="sans-serif" font-size="14" lengthAdjust="spacing" textLength="162.6816" x="27" y="558.5989">receiver_wallet_id : INT</text><ellipse cx="18" cy="571.5491" fill="none" rx="3" ry="3" style="stroke:#038048;stroke-width:1;"/><text fill="#000000" font-family="sans-serif" font-size="14" lengthAdjust="spacing" textLength="82.9404" x="27" y="574.8957">date : DATE</text><ellipse cx="18" cy="587.8459" fill="none" rx="3" ry="3" style="stroke:#038048;stroke-width:1;"/><text fill="#000000" font-family="sans-serif" font-size="14" lengthAdjust="spacing" textLength="103.585" x="27" y="591.1926">amount : REAL</text><line style="stroke:#181818;stroke-width:0.5;" x1="8" x2="194.6816" y1="598.4944" y2="598.4944"/><ellipse cx="18" cy="612.1428" fill="#84BE84" rx="3" ry="3" style="stroke:#038048;stroke-width:1;"/><text fill="#000000" font-family="sans-serif" font-size="14" lengthAdjust="spacing" textLength="159.8037" x="27" y="615.4895">description : CHAR(50)</text></g><!--class Category--><g id="elem_Category"><rect codeLine="49" fill="#F1F1F1" height="96.8906" id="Category" rx="2.5" ry="2.5" style="stroke:#181818;stroke-width:0.5;" width="157.8242" x="875.43" y="221.63"/><ellipse cx="918.2733" cy="237.63" fill="#ADD1B2" rx="11" ry="11" style="stroke:#181818;stroke-width:1;"/><path d="M921.2421,243.2706 Q920.6639,243.5675 920.0233,243.7081 Q919.3827,243.8644 918.6796,243.8644 Q916.1796,243.8644 914.8514,242.2238 Q913.5389,240.5675 913.5389,237.4425 Q913.5389,234.3175 914.8514,232.6613 Q916.1796,231.005 918.6796,231.005 Q919.3827,231.005 920.0233,231.1613 Q920.6796,231.3175 921.2421,231.6144 L921.2421,234.3331 Q920.6171,233.755 920.0233,233.4894 Q919.4296,233.2081 918.8046,233.2081 Q917.4608,233.2081 916.7733,234.2863 Q916.0858,235.3488 916.0858,237.4425 Q916.0858,239.5363 916.7733,240.6144 Q917.4608,241.6769 918.8046,241.6769 Q919.4296,241.6769 920.0233,241.4113 Q920.6171,241.13 921.2421,240.5519 L921.2421,243.2706 Z " fill="#000000"/><text fill="#000000" font-family="sans-serif" font-size="14" lengthAdjust="spacing" textLength="63.9502" x="938.4607" y="242.4767">Category</text><line style="stroke:#181818;stroke-width:0.5;" x1="876.43" x2="1032.2542" y1="253.63" y2="253.63"/><ellipse cx="886.43" cy="267.2784" fill="none" rx="3" ry="3" style="stroke:#038048;stroke-width:1;"/><text fill="#000000" font-family="sans-serif" font-size="14" lengthAdjust="spacing" textLength="49.5469" x="895.43" y="270.6251">id : INT</text><ellipse cx="886.43" cy="283.5753" fill="none" rx="3" ry="3" style="stroke:#038048;stroke-width:1;"/><text fill="#000000" font-family="sans-serif" font-size="14" lengthAdjust="spacing" textLength="131.8242" x="895.43" y="286.922">is_archived : BOOL</text><line style="stroke:#181818;stroke-width:0.5;" x1="876.43" x2="1032.2542" y1="294.2238" y2="294.2238"/><ellipse cx="886.43" cy="307.8722" fill="#84BE84" rx="3" ry="3" style="stroke:#038048;stroke-width:1;"/><text fill="#000000" font-family="sans-serif" font-size="14" lengthAdjust="spacing" textLength="121.666" x="895.43" y="311.2189">name : CHAR(50)</text></g><!--class CreditCardOperator--><g id="elem_CreditCardOperator"><rect codeLine="55" fill="#F1F1F1" height="96.8906" id="CreditCardOperator" rx="2.5" ry="2.5" style="stroke:#181818;stroke-width:0.5;" width="170.0723" x="1202.3" y="7"/><ellipse cx="1217.3" cy="23" fill="#ADD1B2" rx="11" ry="11" style="stroke:#181818;stroke-width:1;"/><path d="M1220.2688,28.6406 Q1219.6906,28.9375 1219.05,29.0781 Q1218.4094,29.2344 1217.7063,29.2344 Q1215.2063,29.2344 1213.8781,27.5938 Q1212.5656,25.9375 1212.5656,22.8125 Q1212.5656,19.6875 1213.8781,18.0313 Q1215.2063,16.375 1217.7063,16.375 Q1218.4094,16.375 1219.05,16.5313 Q1219.7063,16.6875 1220.2688,16.9844 L1220.2688,19.7031 Q1219.6438,19.125 1219.05,18.8594 Q1218.4563,18.5781 1217.8313,18.5781 Q1216.4875,18.5781 1215.8,19.6563 Q1215.1125,20.7188 1215.1125,22.8125 Q1215.1125,24.9063 1215.8,25.9844 Q1216.4875,27.0469 1217.8313,27.0469 Q1218.4563,27.0469 1219.05,26.7813 Q1219.6438,26.5 1220.2688,25.9219 L1220.2688,28.6406 Z " fill="#000000"/><text fill="#000000" font-family="sans-serif" font-size="14" lengthAdjust="spacing" textLength="138.0723" x="1231.3" y="27.8467">CreditCardOperator</text><line style="stroke:#181818;stroke-width:0.5;" x1="1203.3" x2="1371.3723" y1="39" y2="39"/><ellipse cx="1213.3" cy="52.6484" fill="none" rx="3" ry="3" style="stroke:#038048;stroke-width:1;"/><text fill="#000000" font-family="sans-serif" font-size="14" lengthAdjust="spacing" textLength="49.5469" x="1222.3" y="55.9951">id : INT</text><line style="stroke:#181818;stroke-width:0.5;" x1="1203.3" x2="1371.3723" y1="63.2969" y2="63.2969"/><ellipse cx="1213.3" cy="76.9453" fill="#84BE84" rx="3" ry="3" style="stroke:#038048;stroke-width:1;"/><text fill="#000000" font-family="sans-serif" font-size="14" lengthAdjust="spacing" textLength="121.666" x="1222.3" y="80.292">name : CHAR(50)</text><ellipse cx="1213.3" cy="93.2422" fill="#84BE84" rx="3" ry="3" style="stroke:#038048;stroke-width:1;"/><text fill="#000000" font-family="sans-serif" font-size="14" lengthAdjust="spacing" textLength="110.9883" x="1222.3" y="96.5889">icon : CHAR(30)</text></g><!--class CreditCard--><g id="elem_CreditCard"><rect codeLine="61" fill="#F1F1F1" height="178.375" id="CreditCard" rx="2.5" ry="2.5" style="stroke:#181818;stroke-width:0.5;" width="204.7666" x="1184.96" y="180.89"/><ellipse cx="1245.3897" cy="196.89" fill="#ADD1B2" rx="11" ry="11" style="stroke:#181818;stroke-width:1;"/><path d="M1248.3584,202.5306 Q1247.7803,202.8275 1247.1397,202.9681 Q1246.4991,203.1244 1245.7959,203.1244 Q1243.2959,203.1244 1241.9678,201.4838 Q1240.6553,199.8275 1240.6553,196.7025 Q1240.6553,193.5775 1241.9678,191.9213 Q1243.2959,190.265 1245.7959,190.265 Q1246.4991,190.265 1247.1397,190.4213 Q1247.7959,190.5775 1248.3584,190.8744 L1248.3584,193.5931 Q1247.7334,193.015 1247.1397,192.7494 Q1246.5459,192.4681 1245.9209,192.4681 Q1244.5772,192.4681 1243.8897,193.5463 Q1243.2022,194.6088 1243.2022,196.7025 Q1243.2022,198.7963 1243.8897,199.8744 Q1244.5772,200.9369 1245.9209,200.9369 Q1246.5459,200.9369 1247.1397,200.6713 Q1247.7334,200.39 1248.3584,199.8119 L1248.3584,202.5306 Z " fill="#000000"/><text fill="#000000" font-family="sans-serif" font-size="14" lengthAdjust="spacing" textLength="75.4072" x="1265.8897" y="201.7367">CreditCard</text><line style="stroke:#181818;stroke-width:0.5;" x1="1185.96" x2="1388.7266" y1="212.89" y2="212.89"/><ellipse cx="1195.96" cy="226.5384" fill="none" rx="3" ry="3" style="stroke:#038048;stroke-width:1;"/><text fill="#000000" font-family="sans-serif" font-size="14" lengthAdjust="spacing" textLength="49.5469" x="1204.96" y="229.8851">id : INT</text><ellipse cx="1195.96" cy="242.8353" fill="none" rx="3" ry="3" style="stroke:#038048;stroke-width:1;"/><text fill="#000000" font-family="sans-serif" font-size="14" lengthAdjust="spacing" textLength="116.7578" x="1204.96" y="246.182">operator_id : INT</text><ellipse cx="1195.96" cy="259.1322" fill="none" rx="3" ry="3" style="stroke:#038048;stroke-width:1;"/><text fill="#000000" font-family="sans-serif" font-size="14" lengthAdjust="spacing" textLength="145.0996" x="1204.96" y="262.4789">billing_due_day : INT</text><ellipse cx="1195.96" cy="275.4291" fill="none" rx="3" ry="3" style="stroke:#038048;stroke-width:1;"/><text fill="#000000" font-family="sans-serif" font-size="14" lengthAdjust="spacing" textLength="118.6172" x="1204.96" y="278.7757">closing_day : INT</text><ellipse cx="1195.96" cy="291.7259" fill="none" rx="3" ry="3" style="stroke:#038048;stroke-width:1;"/><text fill="#000000" font-family="sans-serif" font-size="14" lengthAdjust="spacing" textLength="118.9453" x="1204.96" y="295.0726">max_debt : REAL</text><ellipse cx="1195.96" cy="308.0228" fill="none" rx="3" ry="3" style="stroke:#038048;stroke-width:1;"/><text fill="#000000" font-family="sans-serif" font-size="14" lengthAdjust="spacing" textLength="131.8242" x="1204.96" y="311.3695">is_archived : BOOL</text><line style="stroke:#181818;stroke-width:0.5;" x1="1185.96" x2="1388.7266" y1="318.6713" y2="318.6713"/><ellipse cx="1195.96" cy="332.3197" fill="#84BE84" rx="3" ry="3" style="stroke:#038048;stroke-width:1;"/><text fill="#000000" font-family="sans-serif" font-size="14" lengthAdjust="spacing" textLength="121.666" x="1204.96" y="335.6664">name : CHAR(50)</text><ellipse cx="1195.96" cy="348.6166" fill="#84BE84" rx="3" ry="3" style="stroke:#038048;stroke-width:1;"/><text fill="#000000" font-family="sans-serif" font-size="14" lengthAdjust="spacing" textLength="178.7666" x="1204.96" y="351.9632">last_four_digits : CHAR(4)</text></g><!--class CreditCardDebt--><g id="elem_CreditCardDebt"><rect codeLine="72" fill="#F1F1F1" height="162.0781" id="CreditCardDebt" rx="2.5" ry="2.5" style="stroke:#181818;stroke-width:0.5;" width="185.8037" x="1194.44" y="468.86"/><ellipse cx="1229.5221" cy="484.86" fill="#ADD1B2" rx="11" ry="11" style="stroke:#181818;stroke-width:1;"/><path d="M1232.4909,490.5006 Q1231.9128,490.7975 1231.2721,490.9381 Q1230.6315,491.0944 1229.9284,491.0944 Q1227.4284,491.0944 1226.1003,489.4537 Q1224.7878,487.7975 1224.7878,484.6725 Q1224.7878,481.5475 1226.1003,479.8912 Q1227.4284,478.235 1229.9284,478.235 Q1230.6315,478.235 1231.2721,478.3912 Q1231.9284,478.5475 1232.4909,478.8444 L1232.4909,481.5631 Q1231.8659,480.985 1231.2721,480.7194 Q1230.6784,480.4381 1230.0534,480.4381 Q1228.7096,480.4381 1228.0221,481.5162 Q1227.3346,482.5787 1227.3346,484.6725 Q1227.3346,486.7662 1228.0221,487.8444 Q1228.7096,488.9069 1230.0534,488.9069 Q1230.6784,488.9069 1231.2721,488.6412 Q1231.8659,488.36 1232.4909,487.7819 L1232.4909,490.5006 Z " fill="#000000"/><text fill="#000000" font-family="sans-serif" font-size="14" lengthAdjust="spacing" textLength="109.1768" x="1247.9848" y="489.7067">CreditCardDebt</text><line style="stroke:#181818;stroke-width:0.5;" x1="1195.44" x2="1379.2437" y1="500.86" y2="500.86"/><ellipse cx="1205.44" cy="514.5084" fill="none" rx="3" ry="3" style="stroke:#038048;stroke-width:1;"/><text fill="#000000" font-family="sans-serif" font-size="14" lengthAdjust="spacing" textLength="49.5469" x="1214.44" y="517.8551">id : INT</text><ellipse cx="1205.44" cy="530.8053" fill="none" rx="3" ry="3" style="stroke:#038048;stroke-width:1;"/><text fill="#000000" font-family="sans-serif" font-size="14" lengthAdjust="spacing" textLength="77.6973" x="1214.44" y="534.152">crc_id : INT</text><ellipse cx="1205.44" cy="547.1022" fill="none" rx="3" ry="3" style="stroke:#038048;stroke-width:1;"/><text fill="#000000" font-family="sans-serif" font-size="14" lengthAdjust="spacing" textLength="118.4189" x="1214.44" y="550.4489">category_id : INT</text><ellipse cx="1205.44" cy="563.3991" fill="none" rx="3" ry="3" style="stroke:#038048;stroke-width:1;"/><text fill="#000000" font-family="sans-serif" font-size="14" lengthAdjust="spacing" textLength="82.9404" x="1214.44" y="566.7457">date : DATE</text><ellipse cx="1205.44" cy="579.6959" fill="none" rx="3" ry="3" style="stroke:#038048;stroke-width:1;"/><text fill="#000000" font-family="sans-serif" font-size="14" lengthAdjust="spacing" textLength="142.5977" x="1214.44" y="583.0426">total_amount : REAL</text><ellipse cx="1205.44" cy="595.9928" fill="none" rx="3" ry="3" style="stroke:#038048;stroke-width:1;"/><text fill="#000000" font-family="sans-serif" font-size="14" lengthAdjust="spacing" textLength="122.582" x="1214.44" y="599.3395">installments : INT</text><line style="stroke:#181818;stroke-width:0.5;" x1="1195.44" x2="1379.2437" y1="606.6412" y2="606.6412"/><ellipse cx="1205.44" cy="620.2897" fill="#84BE84" rx="3" ry="3" style="stroke:#038048;stroke-width:1;"/><text fill="#000000" font-family="sans-serif" font-size="14" lengthAdjust="spacing" textLength="159.8037" x="1214.44" y="623.6364">description : CHAR(50)</text></g><!--class CreditCardPayment--><g id="elem_CreditCardPayment"><rect codeLine="82" fill="#F1F1F1" height="145.7813" id="CreditCardPayment" rx="2.5" ry="2.5" style="stroke:#181818;stroke-width:0.5;" width="169.3271" x="272.68" y="740.53"/><ellipse cx="287.68" cy="756.53" fill="#ADD1B2" rx="11" ry="11" style="stroke:#181818;stroke-width:1;"/><path d="M290.6488,762.1706 Q290.0706,762.4675 289.43,762.6081 Q288.7894,762.7644 288.0863,762.7644 Q285.5863,762.7644 284.2581,761.1238 Q282.9456,759.4675 282.9456,756.3425 Q282.9456,753.2175 284.2581,751.5613 Q285.5863,749.905 288.0863,749.905 Q288.7894,749.905 289.43,750.0613 Q290.0863,750.2175 290.6488,750.5144 L290.6488,753.2331 Q290.0238,752.655 289.43,752.3894 Q288.8363,752.1081 288.2113,752.1081 Q286.8675,752.1081 286.18,753.1863 Q285.4925,754.2488 285.4925,756.3425 Q285.4925,758.4363 286.18,759.5144 Q286.8675,760.5769 288.2113,760.5769 Q288.8363,760.5769 289.43,760.3113 Q290.0238,760.03 290.6488,759.4519 L290.6488,762.1706 Z " fill="#000000"/><text fill="#000000" font-family="sans-serif" font-size="14" lengthAdjust="spacing" textLength="137.3271" x="301.68" y="761.3767">CreditCardPayment</text><line style="stroke:#181818;stroke-width:0.5;" x1="273.68" x2="441.0071" y1="772.53" y2="772.53"/><ellipse cx="283.68" cy="786.1784" fill="none" rx="3" ry="3" style="stroke:#038048;stroke-width:1;"/><text fill="#000000" font-family="sans-serif" font-size="14" lengthAdjust="spacing" textLength="49.5469" x="292.68" y="789.5251">id : INT</text><ellipse cx="283.68" cy="802.4753" fill="none" rx="3" ry="3" style="stroke:#038048;stroke-width:1;"/><text fill="#000000" font-family="sans-serif" font-size="14" lengthAdjust="spacing" textLength="98.458" x="292.68" y="805.822">wallet_id : INT</text><ellipse cx="283.68" cy="818.7722" fill="none" rx="3" ry="3" style="stroke:#038048;stroke-width:1;"/><text fill="#000000" font-family="sans-serif" font-size="14" lengthAdjust="spacing" textLength="88.4229" x="292.68" y="822.1189">debt_id : INT</text><ellipse cx="283.68" cy="835.0691" fill="none" rx="3" ry="3" style="stroke:#038048;stroke-width:1;"/><text fill="#000000" font-family="sans-serif" font-size="14" lengthAdjust="spacing" textLength="82.9404" x="292.68" y="838.4157">date : DATE</text><ellipse cx="283.68" cy="851.3659" fill="none" rx="3" ry="3" style="stroke:#038048;stroke-width:1;"/><text fill="#000000" font-family="sans-serif" font-size="14" lengthAdjust="spacing" textLength="103.585" x="292.68" y="854.7126">amount : REAL</text><ellipse cx="283.68" cy="867.6628" fill="none" rx="3" ry="3" style="stroke:#038048;stroke-width:1;"/><text fill="#000000" font-family="sans-serif" font-size="14" lengthAdjust="spacing" textLength="115.2881" x="292.68" y="871.0095">installment : INT</text><line style="stroke:#181818;stroke-width:0.5;" x1="273.68" x2="441.0071" y1="878.3113" y2="878.3113"/></g><!--reverse link WalletType to Wallet--><g id="link_WalletType_Wallet"><path codeLine="91" d="M328.34,110.16 C328.34,139.92 328.34,172.57 328.34,204.98 " fill="none" id="WalletType-backto-Wallet" style="stroke:#181818;stroke-width:1;"/><polygon fill="#181818" points="328.34,104.16,324.34,113.16,328.34,109.16,332.34,113.16,328.34,104.16" style="stroke:#181818;stroke-width:1;"/><text fill="#000000" font-family="sans-serif" font-size="13" lengthAdjust="spacing" textLength="47.4043" x="329.34" y="146.9569">type_id</text><text fill="#000000" font-family="sans-serif" font-size="13" lengthAdjust="spacing" textLength="8.271" x="319.8203" y="123.7897">1</text><text fill="#000000" font-family="sans-serif" font-size="13" lengthAdjust="spacing" textLength="23.0356" x="304.0839" y="194.1144">0..*</text></g><!--reverse link Wallet to RecurringTransaction--><g id="link_Wallet_RecurringTransaction"><path codeLine="92" d="M413.3248,303.4974 C495.3848,335.2874 621.22,385.46 732.34,436.26 C737.94,438.82 743.61,441.45 749.31,444.12 " fill="none" id="Wallet-backto-RecurringTransaction" style="stroke:#181818;stroke-width:1;"/><polygon fill="#181818" points="407.73,301.33,414.6773,308.311,412.3924,303.1362,417.5672,300.8513,407.73,301.33" style="stroke:#181818;stroke-width:1;"/><text fill="#000000" font-family="sans-serif" font-size="13" lengthAdjust="spacing" textLength="57.2813" x="656.34" y="402.3269">wallet_id</text><text fill="#000000" font-family="sans-serif" font-size="13" lengthAdjust="spacing" textLength="8.271" x="415.1688" y="300.5187">1</text><text fill="#000000" font-family="sans-serif" font-size="13" lengthAdjust="spacing" textLength="23.0356" x="718.5292" y="437.1185">0..*</text></g><!--reverse link Wallet to WalletTransaction--><g id="link_Wallet_WalletTransaction"><path codeLine="93" d="M387.6224,339.7003 C419.7424,376.8803 456.74,419.71 491.89,460.4 " fill="none" id="Wallet-backto-WalletTransaction" style="stroke:#181818;stroke-width:1;"/><polygon fill="#181818" points="383.7,335.16,386.5567,344.5854,386.9687,338.9436,392.6105,339.3556,383.7,335.16" style="stroke:#181818;stroke-width:1;"/><text fill="#000000" font-family="sans-serif" font-size="13" lengthAdjust="spacing" textLength="57.2813" x="441.34" y="402.3269">wallet_id</text><text fill="#000000" font-family="sans-serif" font-size="13" lengthAdjust="spacing" textLength="8.271" x="381.0103" y="354.7194">1</text><text fill="#000000" font-family="sans-serif" font-size="13" lengthAdjust="spacing" textLength="23.0356" x="461.883" y="449.7427">0..*</text></g><!--reverse link Wallet to Transfer--><g id="link_Wallet_Transfer"><path codeLine="94" d="M244.6979,335.8634 C224.8479,353.1734 209,368.94 192.34,389.26 C170.6,415.78 151.07,448.18 135.73,476.84 " fill="none" id="Wallet-backto-Transfer" style="stroke:#181818;stroke-width:1;"/><polygon fill="#181818" points="249.22,331.92,239.8079,334.8204,245.4516,335.2062,245.0658,340.8499,249.22,331.92" style="stroke:#181818;stroke-width:1;"/><text fill="#000000" font-family="sans-serif" font-size="13" lengthAdjust="spacing" textLength="108.3862" x="193.34" y="402.3269">sender_wallet_id</text><text fill="#000000" font-family="sans-serif" font-size="13" lengthAdjust="spacing" textLength="8.271" x="233.051" y="334.3433">1</text><text fill="#000000" font-family="sans-serif" font-size="13" lengthAdjust="spacing" textLength="23.0356" x="114.9849" y="465.9832">0..*</text></g><!--reverse link Wallet to Transfer--><g id="link_Wallet_Transfer"><path codeLine="95" d="M243.0785,282.5966 C178.2485,295.6766 96.43,323.84 53.34,389.26 C36.15,415.36 42.01,447.85 54.52,476.7 " fill="none" id="Wallet-backto-Transfer-1" style="stroke:#181818;stroke-width:1;"/><polygon fill="#181818" points="248.96,281.41,239.3467,279.269,244.0588,282.3989,240.9289,287.111,248.96,281.41" style="stroke:#181818;stroke-width:1;"/><text fill="#000000" font-family="sans-serif" font-size="13" lengthAdjust="spacing" textLength="116.9175" x="54.34" y="402.3269">receiver_wallet_id</text><text fill="#000000" font-family="sans-serif" font-size="13" lengthAdjust="spacing" textLength="8.271" x="233.2857" y="278.8368">1</text><text fill="#000000" font-family="sans-serif" font-size="13" lengthAdjust="spacing" textLength="23.0356" x="25.7808" y="465.8295">0..*</text></g><!--reverse link Wallet to CreditCardPayment--><g id="link_Wallet_CreditCardPayment"><path codeLine="96" d="M330.5845,341.0065 C333.2345,418.7165 338.17,547.81 345.34,663.53 C346.89,688.51 348.97,715.81 350.97,740.14 " fill="none" id="Wallet-backto-CreditCardPayment" style="stroke:#181818;stroke-width:1;"/><polygon fill="#181818" points="330.38,335.01,326.6891,344.1411,330.5504,340.0071,334.6844,343.8684,330.38,335.01" style="stroke:#181818;stroke-width:1;"/><text fill="#000000" font-family="sans-serif" font-size="13" lengthAdjust="spacing" textLength="57.2813" x="346.34" y="554.4669">wallet_id</text><text fill="#000000" font-family="sans-serif" font-size="13" lengthAdjust="spacing" textLength="8.271" x="322.1802" y="355.007">1</text><text fill="#000000" font-family="sans-serif" font-size="13" lengthAdjust="spacing" textLength="23.0356" x="326.2681" y="729.5138">0..*</text></g><!--reverse link Category to RecurringTransaction--><g id="link_Category_RecurringTransaction"><path codeLine="98" d="M954.34,324.83 C954.34,357.1 954.34,395.12 954.34,436.02 " fill="none" id="Category-backto-RecurringTransaction" style="stroke:#181818;stroke-width:1;"/><polygon fill="#181818" points="954.34,318.83,950.34,327.83,954.34,323.83,958.34,327.83,954.34,318.83" style="stroke:#181818;stroke-width:1;"/><text fill="#000000" font-family="sans-serif" font-size="13" lengthAdjust="spacing" textLength="75.8164" x="955.34" y="402.3269">category_id</text><text fill="#000000" font-family="sans-serif" font-size="13" lengthAdjust="spacing" textLength="8.271" x="945.8204" y="338.465">1</text><text fill="#000000" font-family="sans-serif" font-size="13" lengthAdjust="spacing" textLength="23.0356" x="930.6046" y="425.3157">0..*</text></g><!--reverse link Category to WalletTransaction--><g id="link_Category_WalletTransaction"><path codeLine="99" d="M883.1203,322.3352 C829.2303,361.1252 756.62,413.38 691.45,460.29 " fill="none" id="Category-backto-WalletTransaction" style="stroke:#181818;stroke-width:1;"/><polygon fill="#181818" points="887.99,318.83,878.3487,320.8413,883.9319,321.751,883.0223,327.3342,887.99,318.83" style="stroke:#181818;stroke-width:1;"/><text fill="#000000" font-family="sans-serif" font-size="13" lengthAdjust="spacing" textLength="75.8164" x="785.34" y="402.3269">category_id</text><text fill="#000000" font-family="sans-serif" font-size="13" lengthAdjust="spacing" textLength="8.271" x="870.5546" y="338.465">1</text><text fill="#000000" font-family="sans-serif" font-size="13" lengthAdjust="spacing" textLength="23.0356" x="677.3454" y="449.6239">0..*</text></g><!--reverse link Category to CreditCardDebt--><g id="link_Category_CreditCardDebt"><path codeLine="100" d="M1028.8604,322.1822 C1073.7004,353.8622 1127.6,393.84 1176.34,436.26 C1187.94,446.36 1199.77,457.42 1211.19,468.56 " fill="none" id="Category-backto-CreditCardDebt" style="stroke:#181818;stroke-width:1;"/><polygon fill="#181818" points="1023.96,318.72,1029.0024,327.1801,1028.0436,321.6051,1033.6186,320.6463,1023.96,318.72" style="stroke:#181818;stroke-width:1;"/><text fill="#000000" font-family="sans-serif" font-size="13" lengthAdjust="spacing" textLength="75.8164" x="1136.34" y="402.3269">category_id</text><text fill="#000000" font-family="sans-serif" font-size="13" lengthAdjust="spacing" textLength="8.271" x="1025.2066" y="338.6916">1</text><text fill="#000000" font-family="sans-serif" font-size="13" lengthAdjust="spacing" textLength="23.0356" x="1180.3851" y="457.7206">0..*</text></g><!--reverse link CreditCardOperator to CreditCard--><g id="link_CreditCardOperator_CreditCard"><path codeLine="102" d="M1287.34,110.16 C1287.34,132.69 1287.34,154.33 1287.34,180.49 " fill="none" id="CreditCardOperator-backto-CreditCard" style="stroke:#181818;stroke-width:1;"/><polygon fill="#181818" points="1287.34,104.16,1283.34,113.16,1287.34,109.16,1291.34,113.16,1287.34,104.16" style="stroke:#181818;stroke-width:1;"/><text fill="#000000" font-family="sans-serif" font-size="13" lengthAdjust="spacing" textLength="74.2739" x="1288.34" y="146.9569">operator_id</text><text fill="#000000" font-family="sans-serif" font-size="13" lengthAdjust="spacing" textLength="8.271" x="1278.8212" y="123.7897">1</text><text fill="#000000" font-family="sans-serif" font-size="13" lengthAdjust="spacing" textLength="23.0356" x="1263.4248" y="169.8255">0..*</text></g><!--reverse link CreditCard to CreditCardDebt--><g id="link_CreditCard_CreditCardDebt"><path codeLine="103" d="M1287.34,365.74 C1287.34,400.68 1287.34,434.52 1287.34,468.59 " fill="none" id="CreditCard-backto-CreditCardDebt" style="stroke:#181818;stroke-width:1;"/><polygon fill="#181818" points="1287.34,359.74,1283.34,368.74,1287.34,364.74,1291.34,368.74,1287.34,359.74" style="stroke:#181818;stroke-width:1;"/><text fill="#000000" font-family="sans-serif" font-size="13" lengthAdjust="spacing" textLength="38.0034" x="1288.34" y="402.3269">crc_id</text><text fill="#000000" font-family="sans-serif" font-size="13" lengthAdjust="spacing" textLength="8.271" x="1279.0439" y="379.251">1</text><text fill="#000000" font-family="sans-serif" font-size="13" lengthAdjust="spacing" textLength="23.0356" x="1263.3172" y="457.7533">0..*</text></g><!--reverse link CreditCardDebt to CreditCardPayment--><g id="link_CreditCardDebt_CreditCardPayment"><path codeLine="104" d="M1216.4071,635.2743 C1202.8471,647.7043 1192.24,655.12 1176.34,663.53 C1049.21,730.73 624.84,783.42 442.16,803.56 " fill="none" id="CreditCardDebt-backto-CreditCardPayment" style="stroke:#181818;stroke-width:1;"/><polygon fill="#181818" points="1220.83,631.22,1211.4927,634.3529,1217.1442,634.5986,1216.8985,640.2501,1220.83,631.22" style="stroke:#181818;stroke-width:1;"/><text fill="#000000" font-family="sans-serif" font-size="13" lengthAdjust="spacing" textLength="47.9629" x="1098.34" y="706.5969">debt_id</text><text fill="#000000" font-family="sans-serif" font-size="13" lengthAdjust="spacing" textLength="8.271" x="1206.782" y="650.9257">1</text><text fill="#000000" font-family="sans-serif" font-size="13" lengthAdjust="spacing" textLength="23.0356" x="450.1377" y="799.1947">0..*</text></g><!--SRC=[lLLDZzCm4BtdLrWzBT1TBG8k5PUG63QYJLOXiFGKUHstM7ATOZkm4UA_uwJETqApQ4KlZSVpncycxpcO8Id17MACg2W_4l3B0lhtWYPW1Jm_EgquEX2zTcxiyEBDzJEJWbDU1L_fu6_BmgrguvMKFYEUKVmUCSHn4G-XlJQLP8m4_aP_a0B_BWZMpPaXmPaGbEyZWRX4M55DRfJ1pv9TZmD6YknJaST3jdeD_S-R2yztWWrS0lZr5lgVeE693cd6LOTcGYGMz5WowBSb5LAPh4hQJkHzqIKz__JK90aL9vgIJdJj29x2X2V382SFEZKZmvsT8Dypmd5UdURQtdgx17SGVYp-Du4VtHGFMsY7w-tW_VtdGNOdetTSp_-m14xWl_V23NHDsg3D-I-Wxg_iR4V4U5jIpvc8UBGxGJ3HyflOVGfkZfdVOtpu5riuWYHKEKWamP48f5Bn50PlgevNIyrPiunE6TEsDHhEErfYgIotkc5DGSMxD1DnGlTKoQhaQrFnW1xYXDohsNT7quvRm4PRmWBFK_f012fLYCKZKg1SQvwn0-5b3qs5SnAfwTwYl40_mfx5NFv1jIsg1ghPj3uQYvSByFRo4YokhwwUBweFm0gOszwazjD6x-mLg8bFm8RNqtbCRVaLwFlxF6Be-WdCyCsqcLcrj-VDeIMmIUZOBERWUfBlWgoHMsCIhx4jkxUWvuyiBMNruZD6QaJy1m00]--></g></svg>