<svg xmlns="http://www.w3.org/2000/svg" xmlns:xlink="http://www.w3.org/1999/xlink" contentStyleType="text/css" height="860px" preserveAspectRatio="none" style="width:1159px;height:860px;background:#FFFFFF;" version="1.1" viewBox="0 0 1159 860" width="1159px" zoomAndPan="magnify"><defs/><g><!--class WalletType--><g id="elem_WalletType"><rect codeLine="1" fill="#F1F1F1" height="96.8906" id="WalletType" rx="2.5" ry="2.5" style="stroke:#181818;stroke-width:0.5;" width="118.9277" x="211.2" y="23.3"/><ellipse cx="229.9292" cy="39.3" fill="#ADD1B2" rx="11" ry="11" style="stroke:#181818;stroke-width:1;"/><path d="M232.8979,44.9406 Q232.3198,45.2375 231.6792,45.3781 Q231.0386,45.5344 230.3354,45.5344 Q227.8354,45.5344 226.5073,43.8938 Q225.1948,42.2375 225.1948,39.1125 Q225.1948,35.9875 226.5073,34.3313 Q227.8354,32.675 230.3354,32.675 Q231.0386,32.675 231.6792,32.8313 Q232.3354,32.9875 232.8979,33.2844 L232.8979,36.0031 Q232.2729,35.425 231.6792,35.1594 Q231.0854,34.8781 230.4604,34.8781 Q229.1167,34.8781 228.4292,35.9563 Q227.7417,37.0188 227.7417,39.1125 Q227.7417,41.2063 228.4292,42.2844 Q229.1167,43.3469 230.4604,43.3469 Q231.0854,43.3469 231.6792,43.0813 Q232.2729,42.8 232.8979,42.2219 L232.8979,44.9406 Z " fill="#000000"/><text fill="#000000" font-family="sans-serif" font-size="14" lengthAdjust="spacing" textLength="78.6406" x="244.7579" y="44.1467">WalletType</text><line style="stroke:#181818;stroke-width:0.5;" x1="212.2" x2="329.1277" y1="55.3" y2="55.3"/><rect fill="none" height="6" style="stroke:#C82930;stroke-width:1;" width="6" x="219.2" y="65.9484"/><text fill="#000000" font-family="sans-serif" font-size="14" lengthAdjust="spacing" textLength="49.5469" x="231.2" y="72.2951">id : INT</text><rect fill="none" height="6" style="stroke:#C82930;stroke-width:1;" width="6" x="219.2" y="82.2453"/><text fill="#000000" font-family="sans-serif" font-size="14" lengthAdjust="spacing" textLength="92.9277" x="231.2" y="88.592">name : CHAR</text><rect fill="none" height="6" style="stroke:#C82930;stroke-width:1;" width="6" x="219.2" y="98.5422"/><text fill="#000000" font-family="sans-serif" font-size="14" lengthAdjust="spacing" textLength="82.25" x="231.2" y="104.8889">icon : CHAR</text><line style="stroke:#181818;stroke-width:0.5;" x1="212.2" x2="329.1277" y1="112.1906" y2="112.1906"/></g><!--class Wallet--><g id="elem_Wallet"><rect codeLine="7" fill="#F1F1F1" height="129.4844" id="Wallet" rx="2.5" ry="2.5" style="stroke:#181818;stroke-width:0.5;" width="157.8242" x="191.75" y="237.93"/><ellipse cx="244.2603" cy="253.93" fill="#ADD1B2" rx="11" ry="11" style="stroke:#181818;stroke-width:1;"/><path d="M247.229,259.5706 Q246.6509,259.8675 246.0103,260.0081 Q245.3696,260.1644 244.6665,260.1644 Q242.1665,260.1644 240.8384,258.5238 Q239.5259,256.8675 239.5259,253.7425 Q239.5259,250.6175 240.8384,248.9613 Q242.1665,247.305 244.6665,247.305 Q245.3696,247.305 246.0103,247.4613 Q246.6665,247.6175 247.229,247.9144 L247.229,250.6331 Q246.604,250.055 246.0103,249.7894 Q245.4165,249.5081 244.7915,249.5081 Q243.4478,249.5081 242.7603,250.5863 Q242.0728,251.6488 242.0728,253.7425 Q242.0728,255.8363 242.7603,256.9144 Q243.4478,257.9769 244.7915,257.9769 Q245.4165,257.9769 246.0103,257.7113 Q246.604,257.43 247.229,256.8519 L247.229,259.5706 Z " fill="#000000"/><text fill="#000000" font-family="sans-serif" font-size="14" lengthAdjust="spacing" textLength="44.3037" x="264.7603" y="258.7767">Wallet</text><line style="stroke:#181818;stroke-width:0.5;" x1="192.75" x2="348.5742" y1="269.93" y2="269.93"/><rect fill="none" height="6" style="stroke:#C82930;stroke-width:1;" width="6" x="199.75" y="280.5784"/><text fill="#000000" font-family="sans-serif" font-size="14" lengthAdjust="spacing" textLength="49.5469" x="211.75" y="286.9251">id : INT</text><rect fill="none" height="6" style="stroke:#C82930;stroke-width:1;" width="6" x="199.75" y="296.8753"/><text fill="#000000" font-family="sans-serif" font-size="14" lengthAdjust="spacing" textLength="87.8213" x="211.75" y="303.222">type_id : INT</text><rect fill="none" height="6" style="stroke:#C82930;stroke-width:1;" width="6" x="199.75" y="313.1722"/><text fill="#000000" font-family="sans-serif" font-size="14" lengthAdjust="spacing" textLength="92.9277" x="211.75" y="319.5189">name : CHAR</text><rect fill="none" height="6" style="stroke:#C82930;stroke-width:1;" width="6" x="199.75" y="329.4691"/><text fill="#000000" font-family="sans-serif" font-size="14" lengthAdjust="spacing" textLength="104.6855" x="211.75" y="335.8157">balance : REAL</text><rect fill="none" height="6" style="stroke:#C82930;stroke-width:1;" width="6" x="199.75" y="345.7659"/><text fill="#000000" font-family="sans-serif" font-size="14" lengthAdjust="spacing" textLength="131.8242" x="211.75" y="352.1126">is_archived : BOOL</text><line style="stroke:#181818;stroke-width:0.5;" x1="192.75" x2="348.5742" y1="359.4144" y2="359.4144"/></g><!--class BaseTransaction--><g id="elem_BaseTransaction"><rect codeLine="15" fill="#F1F1F1" height="129.4844" id="BaseTransaction" rx="2.5" ry="2.5" style="stroke:#181818;stroke-width:0.5;" width="157.0654" x="502.13" y="7"/><ellipse cx="521.1022" cy="23" fill="#ADD1B2" rx="11" ry="11" style="stroke:#181818;stroke-width:1;"/><path d="M524.071,28.6406 Q523.4928,28.9375 522.8522,29.0781 Q522.2116,29.2344 521.5085,29.2344 Q519.0085,29.2344 517.6803,27.5938 Q516.3678,25.9375 516.3678,22.8125 Q516.3678,19.6875 517.6803,18.0313 Q519.0085,16.375 521.5085,16.375 Q522.2116,16.375 522.8522,16.5313 Q523.5085,16.6875 524.071,16.9844 L524.071,19.7031 Q523.446,19.125 522.8522,18.8594 Q522.2585,18.5781 521.6335,18.5781 Q520.2897,18.5781 519.6022,19.6563 Q518.9147,20.7188 518.9147,22.8125 Q518.9147,24.9063 519.6022,25.9844 Q520.2897,27.0469 521.6335,27.0469 Q522.2585,27.0469 522.8522,26.7813 Q523.446,26.5 524.071,25.9219 L524.071,28.6406 Z " fill="#000000"/><text fill="#000000" font-family="sans-serif" font-size="14" lengthAdjust="spacing" textLength="116.2383" x="535.9849" y="27.8467">BaseTransaction</text><line style="stroke:#181818;stroke-width:0.5;" x1="503.13" x2="658.1954" y1="39" y2="39"/><rect fill="none" height="6" style="stroke:#C82930;stroke-width:1;" width="6" x="510.13" y="49.6484"/><text fill="#000000" font-family="sans-serif" font-size="14" lengthAdjust="spacing" textLength="98.458" x="522.13" y="55.9951">wallet_id : INT</text><rect fill="none" height="6" style="stroke:#C82930;stroke-width:1;" width="6" x="510.13" y="65.9453"/><text fill="#000000" font-family="sans-serif" font-size="14" lengthAdjust="spacing" textLength="118.4189" x="522.13" y="72.292">category_id : INT</text><rect fill="none" height="6" style="stroke:#C82930;stroke-width:1;" width="6" x="510.13" y="82.2422"/><text fill="#000000" font-family="sans-serif" font-size="14" lengthAdjust="spacing" textLength="86.5361" x="522.13" y="88.5889">type : ENUM</text><rect fill="none" height="6" style="stroke:#C82930;stroke-width:1;" width="6" x="510.13" y="98.5391"/><text fill="#000000" font-family="sans-serif" font-size="14" lengthAdjust="spacing" textLength="103.585" x="522.13" y="104.8857">amount : REAL</text><rect fill="none" height="6" style="stroke:#C82930;stroke-width:1;" width="6" x="510.13" y="114.8359"/><text fill="#000000" font-family="sans-serif" font-size="14" lengthAdjust="spacing" textLength="131.0654" x="522.13" y="121.1826">description : CHAR</text><line style="stroke:#181818;stroke-width:0.5;" x1="503.13" x2="658.1954" y1="128.4844" y2="128.4844"/></g><!--class RecurringTransaction--><g id="elem_RecurringTransaction"><rect codeLine="24" fill="#F1F1F1" height="145.7813" id="RecurringTransaction" rx="2.5" ry="2.5" style="stroke:#181818;stroke-width:0.5;" width="182.2197" x="604.55" y="477.01"/><ellipse cx="619.55" cy="493.01" fill="#ADD1B2" rx="11" ry="11" style="stroke:#181818;stroke-width:1;"/><path d="M622.5188,498.6506 Q621.9406,498.9475 621.3,499.0881 Q620.6594,499.2444 619.9563,499.2444 Q617.4563,499.2444 616.1281,497.6038 Q614.8156,495.9475 614.8156,492.8225 Q614.8156,489.6975 616.1281,488.0413 Q617.4563,486.385 619.9563,486.385 Q620.6594,486.385 621.3,486.5413 Q621.9563,486.6975 622.5188,486.9944 L622.5188,489.7131 Q621.8938,489.135 621.3,488.8694 Q620.7063,488.5881 620.0813,488.5881 Q618.7375,488.5881 618.05,489.6663 Q617.3625,490.7288 617.3625,492.8225 Q617.3625,494.9163 618.05,495.9944 Q618.7375,497.0569 620.0813,497.0569 Q620.7063,497.0569 621.3,496.7913 Q621.8938,496.51 622.5188,495.9319 L622.5188,498.6506 Z " fill="#000000"/><text fill="#000000" font-family="sans-serif" font-size="14" lengthAdjust="spacing" textLength="150.2197" x="633.55" y="497.8567">RecurringTransaction</text><line style="stroke:#181818;stroke-width:0.5;" x1="605.55" x2="785.7697" y1="509.01" y2="509.01"/><rect fill="none" height="6" style="stroke:#C82930;stroke-width:1;" width="6" x="612.55" y="519.6584"/><text fill="#000000" font-family="sans-serif" font-size="14" lengthAdjust="spacing" textLength="49.5469" x="624.55" y="526.0051">id : INT</text><rect fill="none" height="6" style="stroke:#C82930;stroke-width:1;" width="6" x="612.55" y="535.9553"/><text fill="#000000" font-family="sans-serif" font-size="14" lengthAdjust="spacing" textLength="98.2803" x="624.55" y="542.302">status : ENUM</text><rect fill="none" height="6" style="stroke:#C82930;stroke-width:1;" width="6" x="612.55" y="552.2522"/><text fill="#000000" font-family="sans-serif" font-size="14" lengthAdjust="spacing" textLength="122.5479" x="624.55" y="558.5989">start_date : DATE</text><rect fill="none" height="6" style="stroke:#C82930;stroke-width:1;" width="6" x="612.55" y="568.5491"/><text fill="#000000" font-family="sans-serif" font-size="14" lengthAdjust="spacing" textLength="116.3135" x="624.55" y="574.8957">end_date : DATE</text><rect fill="none" height="6" style="stroke:#C82930;stroke-width:1;" width="6" x="612.55" y="584.8459"/><text fill="#000000" font-family="sans-serif" font-size="14" lengthAdjust="spacing" textLength="154.5742" x="624.55" y="591.1926">next_due_date : DATE</text><rect fill="none" height="6" style="stroke:#C82930;stroke-width:1;" width="6" x="612.55" y="601.1428"/><text fill="#000000" font-family="sans-serif" font-size="14" lengthAdjust="spacing" textLength="125.7881" x="624.55" y="607.4895">frequency : ENUM</text><line style="stroke:#181818;stroke-width:0.5;" x1="605.55" x2="785.7697" y1="614.7913" y2="614.7913"/></g><!--class WalletTransaction--><g id="elem_WalletTransaction"><rect codeLine="33" fill="#F1F1F1" height="96.8906" id="WalletTransaction" rx="2.5" ry="2.5" style="stroke:#181818;stroke-width:0.5;" width="158.4512" x="411.44" y="501.45"/><ellipse cx="426.44" cy="517.45" fill="#ADD1B2" rx="11" ry="11" style="stroke:#181818;stroke-width:1;"/><path d="M429.4088,523.0906 Q428.8306,523.3875 428.19,523.5281 Q427.5494,523.6844 426.8463,523.6844 Q424.3463,523.6844 423.0181,522.0438 Q421.7056,520.3875 421.7056,517.2625 Q421.7056,514.1375 423.0181,512.4813 Q424.3463,510.825 426.8463,510.825 Q427.5494,510.825 428.19,510.9813 Q428.8463,511.1375 429.4088,511.4344 L429.4088,514.1531 Q428.7838,513.575 428.19,513.3094 Q427.5963,513.0281 426.9713,513.0281 Q425.6275,513.0281 424.94,514.1063 Q424.2525,515.1688 424.2525,517.2625 Q424.2525,519.3563 424.94,520.4344 Q425.6275,521.4969 426.9713,521.4969 Q427.5963,521.4969 428.19,521.2313 Q428.7838,520.95 429.4088,520.3719 L429.4088,523.0906 Z " fill="#000000"/><text fill="#000000" font-family="sans-serif" font-size="14" lengthAdjust="spacing" textLength="126.4512" x="440.44" y="522.2967">WalletTransaction</text><line style="stroke:#181818;stroke-width:0.5;" x1="412.44" x2="568.8912" y1="533.45" y2="533.45"/><rect fill="none" height="6" style="stroke:#C82930;stroke-width:1;" width="6" x="419.44" y="544.0984"/><text fill="#000000" font-family="sans-serif" font-size="14" lengthAdjust="spacing" textLength="49.5469" x="431.44" y="550.4451">id : INT</text><rect fill="none" height="6" style="stroke:#C82930;stroke-width:1;" width="6" x="419.44" y="560.3953"/><text fill="#000000" font-family="sans-serif" font-size="14" lengthAdjust="spacing" textLength="98.2803" x="431.44" y="566.742">status : ENUM</text><rect fill="none" height="6" style="stroke:#C82930;stroke-width:1;" width="6" x="419.44" y="576.6922"/><text fill="#000000" font-family="sans-serif" font-size="14" lengthAdjust="spacing" textLength="82.9404" x="431.44" y="583.0389">date : DATE</text><line style="stroke:#181818;stroke-width:0.5;" x1="412.44" x2="568.8912" y1="590.3406" y2="590.3406"/></g><!--class Transfer--><g id="elem_Transfer"><rect codeLine="39" fill="#F1F1F1" height="145.7813" id="Transfer" rx="2.5" ry="2.5" style="stroke:#181818;stroke-width:0.5;" width="188.6816" x="166.32" y="477.01"/><ellipse cx="227.235" cy="493.01" fill="#ADD1B2" rx="11" ry="11" style="stroke:#181818;stroke-width:1;"/><path d="M230.2038,498.6506 Q229.6257,498.9475 228.985,499.0881 Q228.3444,499.2444 227.6413,499.2444 Q225.1413,499.2444 223.8132,497.6038 Q222.5007,495.9475 222.5007,492.8225 Q222.5007,489.6975 223.8132,488.0413 Q225.1413,486.385 227.6413,486.385 Q228.3444,486.385 228.985,486.5413 Q229.6413,486.6975 230.2038,486.9944 L230.2038,489.7131 Q229.5788,489.135 228.985,488.8694 Q228.3913,488.5881 227.7663,488.5881 Q226.4225,488.5881 225.735,489.6663 Q225.0475,490.7288 225.0475,492.8225 Q225.0475,494.9163 225.735,495.9944 Q226.4225,497.0569 227.7663,497.0569 Q228.3913,497.0569 228.985,496.7913 Q229.5788,496.51 230.2038,495.9319 L230.2038,498.6506 Z " fill="#000000"/><text fill="#000000" font-family="sans-serif" font-size="14" lengthAdjust="spacing" textLength="58.3516" x="247.735" y="497.8567">Transfer</text><line style="stroke:#181818;stroke-width:0.5;" x1="167.32" x2="354.0016" y1="509.01" y2="509.01"/><rect fill="none" height="6" style="stroke:#C82930;stroke-width:1;" width="6" x="174.32" y="519.6584"/><text fill="#000000" font-family="sans-serif" font-size="14" lengthAdjust="spacing" textLength="49.5469" x="186.32" y="526.0051">id : INT</text><rect fill="none" height="6" style="stroke:#C82930;stroke-width:1;" width="6" x="174.32" y="535.9553"/><text fill="#000000" font-family="sans-serif" font-size="14" lengthAdjust="spacing" textLength="153.4941" x="186.32" y="542.302">sender_wallet_id : INT</text><rect fill="none" height="6" style="stroke:#C82930;stroke-width:1;" width="6" x="174.32" y="552.2522"/><text fill="#000000" font-family="sans-serif" font-size="14" lengthAdjust="spacing" textLength="162.6816" x="186.32" y="558.5989">receiver_wallet_id : INT</text><rect fill="none" height="6" style="stroke:#C82930;stroke-width:1;" width="6" x="174.32" y="568.5491"/><text fill="#000000" font-family="sans-serif" font-size="14" lengthAdjust="spacing" textLength="82.9404" x="186.32" y="574.8957">date : DATE</text><rect fill="none" height="6" style="stroke:#C82930;stroke-width:1;" width="6" x="174.32" y="584.8459"/><text fill="#000000" font-family="sans-serif" font-size="14" lengthAdjust="spacing" textLength="103.585" x="186.32" y="591.1926">amount : REAL</text><rect fill="none" height="6" style="stroke:#C82930;stroke-width:1;" width="6" x="174.32" y="601.1428"/><text fill="#000000" font-family="sans-serif" font-size="14" lengthAdjust="spacing" textLength="131.0654" x="186.32" y="607.4895">description : CHAR</text><line style="stroke:#181818;stroke-width:0.5;" x1="167.32" x2="354.0016" y1="614.7913" y2="614.7913"/></g><!--class Category--><g id="elem_Category"><rect codeLine="48" fill="#F1F1F1" height="96.8906" id="Category" rx="2.5" ry="2.5" style="stroke:#181818;stroke-width:0.5;" width="157.8242" x="746.75" y="254.23"/><ellipse cx="789.5933" cy="270.23" fill="#ADD1B2" rx="11" ry="11" style="stroke:#181818;stroke-width:1;"/><path d="M792.5621,275.8706 Q791.9839,276.1675 791.3433,276.3081 Q790.7027,276.4644 789.9996,276.4644 Q787.4996,276.4644 786.1714,274.8238 Q784.8589,273.1675 784.8589,270.0425 Q784.8589,266.9175 786.1714,265.2613 Q787.4996,263.605 789.9996,263.605 Q790.7027,263.605 791.3433,263.7613 Q791.9996,263.9175 792.5621,264.2144 L792.5621,266.9331 Q791.9371,266.355 791.3433,266.0894 Q790.7496,265.8081 790.1246,265.8081 Q788.7808,265.8081 788.0933,266.8863 Q787.4058,267.9488 787.4058,270.0425 Q787.4058,272.1363 788.0933,273.2144 Q788.7808,274.2769 790.1246,274.2769 Q790.7496,274.2769 791.3433,274.0113 Q791.9371,273.73 792.5621,273.1519 L792.5621,275.8706 Z " fill="#000000"/><text fill="#000000" font-family="sans-serif" font-size="14" lengthAdjust="spacing" textLength="63.9502" x="809.7807" y="275.0767">Category</text><line style="stroke:#181818;stroke-width:0.5;" x1="747.75" x2="903.5742" y1="286.23" y2="286.23"/><rect fill="none" height="6" style="stroke:#C82930;stroke-width:1;" width="6" x="754.75" y="296.8784"/><text fill="#000000" font-family="sans-serif" font-size="14" lengthAdjust="spacing" textLength="49.5469" x="766.75" y="303.2251">id : INT</text><rect fill="none" height="6" style="stroke:#C82930;stroke-width:1;" width="6" x="754.75" y="313.1753"/><text fill="#000000" font-family="sans-serif" font-size="14" lengthAdjust="spacing" textLength="92.9277" x="766.75" y="319.522">name : CHAR</text><rect fill="none" height="6" style="stroke:#C82930;stroke-width:1;" width="6" x="754.75" y="329.4722"/><text fill="#000000" font-family="sans-serif" font-size="14" lengthAdjust="spacing" textLength="131.8242" x="766.75" y="335.8189">is_archived : BOOL</text><line style="stroke:#181818;stroke-width:0.5;" x1="747.75" x2="903.5742" y1="343.1206" y2="343.1206"/></g><!--class CreditCardOperator--><g id="elem_CreditCardOperator"><rect codeLine="54" fill="#F1F1F1" height="96.8906" id="CreditCardOperator" rx="2.5" ry="2.5" style="stroke:#181818;stroke-width:0.5;" width="170.0723" x="974.63" y="23.3"/><ellipse cx="989.63" cy="39.3" fill="#ADD1B2" rx="11" ry="11" style="stroke:#181818;stroke-width:1;"/><path d="M992.5988,44.9406 Q992.0206,45.2375 991.38,45.3781 Q990.7394,45.5344 990.0363,45.5344 Q987.5363,45.5344 986.2081,43.8938 Q984.8956,42.2375 984.8956,39.1125 Q984.8956,35.9875 986.2081,34.3313 Q987.5363,32.675 990.0363,32.675 Q990.7394,32.675 991.38,32.8313 Q992.0363,32.9875 992.5988,33.2844 L992.5988,36.0031 Q991.9738,35.425 991.38,35.1594 Q990.7863,34.8781 990.1613,34.8781 Q988.8175,34.8781 988.13,35.9563 Q987.4425,37.0188 987.4425,39.1125 Q987.4425,41.2063 988.13,42.2844 Q988.8175,43.3469 990.1613,43.3469 Q990.7863,43.3469 991.38,43.0813 Q991.9738,42.8 992.5988,42.2219 L992.5988,44.9406 Z " fill="#000000"/><text fill="#000000" font-family="sans-serif" font-size="14" lengthAdjust="spacing" textLength="138.0723" x="1003.63" y="44.1467">CreditCardOperator</text><line style="stroke:#181818;stroke-width:0.5;" x1="975.63" x2="1143.7023" y1="55.3" y2="55.3"/><rect fill="none" height="6" style="stroke:#C82930;stroke-width:1;" width="6" x="982.63" y="65.9484"/><text fill="#000000" font-family="sans-serif" font-size="14" lengthAdjust="spacing" textLength="49.5469" x="994.63" y="72.2951">id : INT</text><rect fill="none" height="6" style="stroke:#C82930;stroke-width:1;" width="6" x="982.63" y="82.2453"/><text fill="#000000" font-family="sans-serif" font-size="14" lengthAdjust="spacing" textLength="92.9277" x="994.63" y="88.592">name : CHAR</text><rect fill="none" height="6" style="stroke:#C82930;stroke-width:1;" width="6" x="982.63" y="98.5422"/><text fill="#000000" font-family="sans-serif" font-size="14" lengthAdjust="spacing" textLength="82.25" x="994.63" y="104.8889">icon : CHAR</text><line style="stroke:#181818;stroke-width:0.5;" x1="975.63" x2="1143.7023" y1="112.1906" y2="112.1906"/></g><!--class CreditCard--><g id="elem_CreditCard"><rect codeLine="60" fill="#F1F1F1" height="178.375" id="CreditCard" rx="2.5" ry="2.5" style="stroke:#181818;stroke-width:0.5;" width="184.9355" x="967.2" y="213.49"/><ellipse cx="1017.7142" cy="229.49" fill="#ADD1B2" rx="11" ry="11" style="stroke:#181818;stroke-width:1;"/><path d="M1020.6829,235.1306 Q1020.1048,235.4275 1019.4642,235.5681 Q1018.8235,235.7244 1018.1204,235.7244 Q1015.6204,235.7244 1014.2923,234.0838 Q1012.9798,232.4275 1012.9798,229.3025 Q1012.9798,226.1775 1014.2923,224.5213 Q1015.6204,222.865 1018.1204,222.865 Q1018.8235,222.865 1019.4642,223.0213 Q1020.1204,223.1775 1020.6829,223.4744 L1020.6829,226.1931 Q1020.0579,225.615 1019.4642,225.3494 Q1018.8704,225.0681 1018.2454,225.0681 Q1016.9017,225.0681 1016.2142,226.1463 Q1015.5267,227.2088 1015.5267,229.3025 Q1015.5267,231.3963 1016.2142,232.4744 Q1016.9017,233.5369 1018.2454,233.5369 Q1018.8704,233.5369 1019.4642,233.2713 Q1020.0579,232.99 1020.6829,232.4119 L1020.6829,235.1306 Z " fill="#000000"/><text fill="#000000" font-family="sans-serif" font-size="14" lengthAdjust="spacing" textLength="75.4072" x="1038.2142" y="234.3367">CreditCard</text><line style="stroke:#181818;stroke-width:0.5;" x1="968.2" x2="1151.1355" y1="245.49" y2="245.49"/><rect fill="none" height="6" style="stroke:#C82930;stroke-width:1;" width="6" x="975.2" y="256.1384"/><text fill="#000000" font-family="sans-serif" font-size="14" lengthAdjust="spacing" textLength="49.5469" x="987.2" y="262.4851">id : INT</text><rect fill="none" height="6" style="stroke:#C82930;stroke-width:1;" width="6" x="975.2" y="272.4353"/><text fill="#000000" font-family="sans-serif" font-size="14" lengthAdjust="spacing" textLength="116.7578" x="987.2" y="278.782">operator_id : INT</text><rect fill="none" height="6" style="stroke:#C82930;stroke-width:1;" width="6" x="975.2" y="288.7322"/><text fill="#000000" font-family="sans-serif" font-size="14" lengthAdjust="spacing" textLength="92.9277" x="987.2" y="295.0789">name : CHAR</text><rect fill="none" height="6" style="stroke:#C82930;stroke-width:1;" width="6" x="975.2" y="305.0291"/><text fill="#000000" font-family="sans-serif" font-size="14" lengthAdjust="spacing" textLength="145.0996" x="987.2" y="311.3757">billing_due_day : INT</text><rect fill="none" height="6" style="stroke:#C82930;stroke-width:1;" width="6" x="975.2" y="321.3259"/><text fill="#000000" font-family="sans-serif" font-size="14" lengthAdjust="spacing" textLength="118.6172" x="987.2" y="327.6726">closing_day : INT</text><rect fill="none" height="6" style="stroke:#C82930;stroke-width:1;" width="6" x="975.2" y="337.6228"/><text fill="#000000" font-family="sans-serif" font-size="14" lengthAdjust="spacing" textLength="158.9355" x="987.2" y="343.9695">last_four_digits : CHAR</text><rect fill="none" height="6" style="stroke:#C82930;stroke-width:1;" width="6" x="975.2" y="353.9197"/><text fill="#000000" font-family="sans-serif" font-size="14" lengthAdjust="spacing" textLength="118.9453" x="987.2" y="360.2664">max_debt : REAL</text><rect fill="none" height="6" style="stroke:#C82930;stroke-width:1;" width="6" x="975.2" y="370.2166"/><text fill="#000000" font-family="sans-serif" font-size="14" lengthAdjust="spacing" textLength="131.8242" x="987.2" y="376.5632">is_archived : BOOL</text><line style="stroke:#181818;stroke-width:0.5;" x1="968.2" x2="1151.1355" y1="383.865" y2="383.865"/></g><!--class CreditCardDebt--><g id="elem_CreditCardDebt"><rect codeLine="71" fill="#F1F1F1" height="162.0781" id="CreditCardDebt" rx="2.5" ry="2.5" style="stroke:#181818;stroke-width:0.5;" width="168.5977" x="858.36" y="468.86"/><ellipse cx="885.6994" cy="484.86" fill="#ADD1B2" rx="11" ry="11" style="stroke:#181818;stroke-width:1;"/><path d="M888.6682,490.5006 Q888.09,490.7975 887.4494,490.9381 Q886.8088,491.0944 886.1057,491.0944 Q883.6057,491.0944 882.2775,489.4538 Q880.965,487.7975 880.965,484.6725 Q880.965,481.5475 882.2775,479.8913 Q883.6057,478.235 886.1057,478.235 Q886.8088,478.235 887.4494,478.3913 Q888.1057,478.5475 888.6682,478.8444 L888.6682,481.5631 Q888.0432,480.985 887.4494,480.7194 Q886.8557,480.4381 886.2307,480.4381 Q884.8869,480.4381 884.1994,481.5163 Q883.5119,482.5788 883.5119,484.6725 Q883.5119,486.7663 884.1994,487.8444 Q884.8869,488.9069 886.2307,488.9069 Q886.8557,488.9069 887.4494,488.6413 Q888.0432,488.36 888.6682,487.7819 L888.6682,490.5006 Z " fill="#000000"/><text fill="#000000" font-family="sans-serif" font-size="14" lengthAdjust="spacing" textLength="109.1768" x="902.4415" y="489.7067">CreditCardDebt</text><line style="stroke:#181818;stroke-width:0.5;" x1="859.36" x2="1025.9577" y1="500.86" y2="500.86"/><rect fill="none" height="6" style="stroke:#C82930;stroke-width:1;" width="6" x="866.36" y="511.5084"/><text fill="#000000" font-family="sans-serif" font-size="14" lengthAdjust="spacing" textLength="49.5469" x="878.36" y="517.8551">id : INT</text><rect fill="none" height="6" style="stroke:#C82930;stroke-width:1;" width="6" x="866.36" y="527.8053"/><text fill="#000000" font-family="sans-serif" font-size="14" lengthAdjust="spacing" textLength="77.6973" x="878.36" y="534.152">crc_id : INT</text><rect fill="none" height="6" style="stroke:#C82930;stroke-width:1;" width="6" x="866.36" y="544.1022"/><text fill="#000000" font-family="sans-serif" font-size="14" lengthAdjust="spacing" textLength="118.4189" x="878.36" y="550.4489">category_id : INT</text><rect fill="none" height="6" style="stroke:#C82930;stroke-width:1;" width="6" x="866.36" y="560.3991"/><text fill="#000000" font-family="sans-serif" font-size="14" lengthAdjust="spacing" textLength="82.9404" x="878.36" y="566.7457">date : DATE</text><rect fill="none" height="6" style="stroke:#C82930;stroke-width:1;" width="6" x="866.36" y="576.6959"/><text fill="#000000" font-family="sans-serif" font-size="14" lengthAdjust="spacing" textLength="142.5977" x="878.36" y="583.0426">total_amount : REAL</text><rect fill="none" height="6" style="stroke:#C82930;stroke-width:1;" width="6" x="866.36" y="592.9928"/><text fill="#000000" font-family="sans-serif" font-size="14" lengthAdjust="spacing" textLength="122.582" x="878.36" y="599.3395">installments : INT</text><rect fill="none" height="6" style="stroke:#C82930;stroke-width:1;" width="6" x="866.36" y="609.2897"/><text fill="#000000" font-family="sans-serif" font-size="14" lengthAdjust="spacing" textLength="131.0654" x="878.36" y="615.6364">description : CHAR</text><line style="stroke:#181818;stroke-width:0.5;" x1="859.36" x2="1025.9577" y1="622.9381" y2="622.9381"/></g><!--class CreditCardPayment--><g id="elem_CreditCardPayment"><rect codeLine="81" fill="#F1F1F1" height="145.7813" id="CreditCardPayment" rx="2.5" ry="2.5" style="stroke:#181818;stroke-width:0.5;" width="169.3271" x="7" y="707.94"/><ellipse cx="22" cy="723.94" fill="#ADD1B2" rx="11" ry="11" style="stroke:#181818;stroke-width:1;"/><path d="M24.9688,729.5806 Q24.3906,729.8775 23.75,730.0181 Q23.1094,730.1744 22.4063,730.1744 Q19.9063,730.1744 18.5781,728.5338 Q17.2656,726.8775 17.2656,723.7525 Q17.2656,720.6275 18.5781,718.9713 Q19.9063,717.315 22.4063,717.315 Q23.1094,717.315 23.75,717.4713 Q24.4063,717.6275 24.9688,717.9244 L24.9688,720.6431 Q24.3438,720.065 23.75,719.7994 Q23.1563,719.5181 22.5313,719.5181 Q21.1875,719.5181 20.5,720.5963 Q19.8125,721.6588 19.8125,723.7525 Q19.8125,725.8463 20.5,726.9244 Q21.1875,727.9869 22.5313,727.9869 Q23.1563,727.9869 23.75,727.7213 Q24.3438,727.44 24.9688,726.8619 L24.9688,729.5806 Z " fill="#000000"/><text fill="#000000" font-family="sans-serif" font-size="14" lengthAdjust="spacing" textLength="137.3271" x="36" y="728.7867">CreditCardPayment</text><line style="stroke:#181818;stroke-width:0.5;" x1="8" x2="175.3271" y1="739.94" y2="739.94"/><rect fill="none" height="6" style="stroke:#C82930;stroke-width:1;" width="6" x="15" y="750.5884"/><text fill="#000000" font-family="sans-serif" font-size="14" lengthAdjust="spacing" textLength="49.5469" x="27" y="756.9351">id : INT</text><rect fill="none" height="6" style="stroke:#C82930;stroke-width:1;" width="6" x="15" y="766.8853"/><text fill="#000000" font-family="sans-serif" font-size="14" lengthAdjust="spacing" textLength="98.458" x="27" y="773.232">wallet_id : INT</text><rect fill="none" height="6" style="stroke:#C82930;stroke-width:1;" width="6" x="15" y="783.1822"/><text fill="#000000" font-family="sans-serif" font-size="14" lengthAdjust="spacing" textLength="88.4229" x="27" y="789.5289">debt_id : INT</text><rect fill="none" height="6" style="stroke:#C82930;stroke-width:1;" width="6" x="15" y="799.4791"/><text fill="#000000" font-family="sans-serif" font-size="14" lengthAdjust="spacing" textLength="82.9404" x="27" y="805.8257">date : DATE</text><rect fill="none" height="6" style="stroke:#C82930;stroke-width:1;" width="6" x="15" y="815.7759"/><text fill="#000000" font-family="sans-serif" font-size="14" lengthAdjust="spacing" textLength="103.585" x="27" y="822.1226">amount : REAL</text><rect fill="none" height="6" style="stroke:#C82930;stroke-width:1;" width="6" x="15" y="832.0728"/><text fill="#000000" font-family="sans-serif" font-size="14" lengthAdjust="spacing" textLength="115.2881" x="27" y="838.4195">installment : INT</text><line style="stroke:#181818;stroke-width:0.5;" x1="8" x2="175.3271" y1="845.7213" y2="845.7213"/></g><!--reverse link WalletType to Wallet--><g id="link_WalletType_Wallet"><path codeLine="90" d="M270.66,126.46 C270.66,160.4 270.66,200.37 270.66,237.52 " fill="none" id="WalletType-backto-Wallet" style="stroke:#181818;stroke-width:1;"/><polygon fill="#181818" points="270.66,120.46,266.66,129.46,270.66,125.46,274.66,129.46,270.66,120.46" style="stroke:#181818;stroke-width:1;"/><text fill="#000000" font-family="sans-serif" font-size="13" lengthAdjust="spacing" textLength="47.4043" x="271.66" y="179.5569">type_id</text><text fill="#000000" font-family="sans-serif" font-size="13" lengthAdjust="spacing" textLength="23.0356" x="246.4039" y="226.6478">0..*</text></g><!--reverse link BaseTransaction to RecurringTransaction--><g id="link_BaseTransaction_RecurringTransaction"><path codeLine="92" d="M600.3964,154.4568 C621.7664,242.9268 655.91,384.31 678.24,476.77 " fill="none" id="BaseTransaction-backto-RecurringTransaction" style="stroke:#181818;stroke-width:1;"/><polygon fill="none" points="596.17,136.96,594.5641,155.8656,606.2286,153.048,596.17,136.96" style="stroke:#181818;stroke-width:1;"/></g><!--reverse link BaseTransaction to WalletTransaction--><g id="link_BaseTransaction_WalletTransaction"><path codeLine="93" d="M565.1859,154.6466 C546.8759,251.4866 515.97,415.04 499.69,501.13 " fill="none" id="BaseTransaction-backto-WalletTransaction" style="stroke:#181818;stroke-width:1;"/><polygon fill="none" points="568.53,136.96,559.2904,153.5319,571.0814,155.7613,568.53,136.96" style="stroke:#181818;stroke-width:1;"/></g><!--reverse link Wallet to RecurringTransaction--><g id="link_Wallet_RecurringTransaction"><path codeLine="95" d="M355.1551,343.1849 C420.4751,374.6649 509.41,419.9 587.66,468.86 C593.1,472.26 598.62,475.86 604.14,479.57 " fill="none" id="Wallet-backto-RecurringTransaction" style="stroke:#181818;stroke-width:1;"/><polygon fill="#181818" points="349.75,340.58,356.121,348.0907,354.2542,342.7507,359.5942,340.884,349.75,340.58" style="stroke:#181818;stroke-width:1;"/><text fill="#000000" font-family="sans-serif" font-size="13" lengthAdjust="spacing" textLength="57.2813" x="537.66" y="434.9269">wallet_id</text><text fill="#000000" font-family="sans-serif" font-size="13" lengthAdjust="spacing" textLength="23.0356" x="573.5758" y="470.9261">0..*</text></g><!--reverse link Wallet to WalletTransaction--><g id="link_Wallet_WalletTransaction"><path codeLine="96" d="M342.1037,371.9016 C359.4037,389.1116 373.45,403.75 389.66,421.86 C412.31,447.16 436.02,476.78 454.77,501.06 " fill="none" id="Wallet-backto-WalletTransaction" style="stroke:#181818;stroke-width:1;"/><polygon fill="#181818" points="337.85,367.67,341.4095,376.8531,341.3947,371.1963,347.0516,371.1815,337.85,367.67" style="stroke:#181818;stroke-width:1;"/><text fill="#000000" font-family="sans-serif" font-size="13" lengthAdjust="spacing" textLength="57.2813" x="404.66" y="434.9269">wallet_id</text><text fill="#000000" font-family="sans-serif" font-size="13" lengthAdjust="spacing" textLength="23.0356" x="425.1075" y="490.2141">0..*</text></g><!--reverse link Wallet to Transfer--><g id="link_Wallet_Transfer"><path codeLine="97" d="M186.6144,347.7582 C157.8344,367.0282 133.5,389.62 117.66,421.86 C114.33,428.64 114.33,432.08 117.66,438.86 C128.66,461.2 146.62,480.28 166.16,495.97 " fill="none" id="Wallet-backto-Transfer" style="stroke:#181818;stroke-width:1;"/><polygon fill="#181818" points="191.6,344.42,181.8961,346.1035,187.4453,347.2018,186.347,352.751,191.6,344.42" style="stroke:#181818;stroke-width:1;"/><text fill="#000000" font-family="sans-serif" font-size="13" lengthAdjust="spacing" textLength="108.3862" x="118.66" y="434.9269">sender_wallet_id</text><text fill="#000000" font-family="sans-serif" font-size="13" lengthAdjust="spacing" textLength="23.0356" x="135.3769" y="488.5305">0..*</text></g><!--reverse link Wallet to Transfer--><g id="link_Wallet_Transfer"><path codeLine="98" d="M267.8048,373.775 C266.4348,407.265 265.01,442.37 263.6,476.95 " fill="none" id="Wallet-backto-Transfer-1" style="stroke:#181818;stroke-width:1;"/><polygon fill="#181818" points="268.05,367.78,263.6855,376.609,267.8456,372.7758,271.6788,376.936,268.05,367.78" style="stroke:#181818;stroke-width:1;"/><text fill="#000000" font-family="sans-serif" font-size="13" lengthAdjust="spacing" textLength="116.9175" x="266.66" y="434.9269">receiver_wallet_id</text><text fill="#000000" font-family="sans-serif" font-size="13" lengthAdjust="spacing" textLength="23.0356" x="239.719" y="465.7273">0..*</text></g><!--reverse link Wallet to CreditCardPayment--><g id="link_Wallet_CreditCardPayment"><path codeLine="99" d="M186.5881,350.8937 C157.0481,370.4637 130.22,392.47 107.66,421.86 C45.07,503.41 56.62,628.84 72.67,707.51 " fill="none" id="Wallet-backto-CreditCardPayment" style="stroke:#181818;stroke-width:1;"/><polygon fill="#181818" points="191.59,347.58,181.878,349.216,187.4217,350.3414,186.2963,355.8852,191.59,347.58" style="stroke:#181818;stroke-width:1;"/><text fill="#000000" font-family="sans-serif" font-size="13" lengthAdjust="spacing" textLength="57.2813" x="80.66" y="554.4669">wallet_id</text><text fill="#000000" font-family="sans-serif" font-size="13" lengthAdjust="spacing" textLength="23.0356" x="46.7653" y="696.88">0..*</text></g><!--reverse link Category to RecurringTransaction--><g id="link_Category_RecurringTransaction"><path codeLine="101" d="M815.563,357.3291 C809.453,384.0591 801.09,411.54 786.66,438.86 C779.83,451.79 771.32,464.61 762.26,476.68 " fill="none" id="Category-backto-RecurringTransaction" style="stroke:#181818;stroke-width:1;"/><polygon fill="#181818" points="816.9,351.48,810.9951,359.3624,815.7858,356.3543,818.7939,361.145,816.9,351.48" style="stroke:#181818;stroke-width:1;"/><text fill="#000000" font-family="sans-serif" font-size="13" lengthAdjust="spacing" textLength="75.8164" x="793.66" y="434.9269">category_id</text><text fill="#000000" font-family="sans-serif" font-size="13" lengthAdjust="spacing" textLength="23.0356" x="744.5134" y="466.0595">0..*</text></g><!--reverse link Category to WalletTransaction--><g id="link_Category_WalletTransaction"><path codeLine="102" d="M756.0741,354.9342 C719.6841,381.3442 678.05,410.85 635.66,438.86 C614.36,452.94 607.41,453.98 586.66,468.86 C572.82,478.79 558.44,490.15 545.16,501.14 " fill="none" id="Category-backto-WalletTransaction" style="stroke:#181818;stroke-width:1;"/><polygon fill="#181818" points="760.93,351.41,751.2966,353.459,756.8834,354.3468,755.9956,359.9336,760.93,351.41" style="stroke:#181818;stroke-width:1;"/><text fill="#000000" font-family="sans-serif" font-size="13" lengthAdjust="spacing" textLength="75.8164" x="657.66" y="434.9269">category_id</text><text fill="#000000" font-family="sans-serif" font-size="13" lengthAdjust="spacing" textLength="23.0356" x="528.2086" y="490.3053">0..*</text></g><!--reverse link Category to CreditCardDebt--><g id="link_Category_CreditCardDebt"><path codeLine="103" d="M865.2065,356.4954 C879.6765,377.2954 892.18,397.51 903.66,421.86 C910.6,436.57 916.67,452.82 921.83,468.63 " fill="none" id="Category-backto-CreditCardDebt" style="stroke:#181818;stroke-width:1;"/><polygon fill="#181818" points="861.78,351.57,863.6361,361.2424,864.6354,355.6745,870.2033,356.6738,861.78,351.57" style="stroke:#181818;stroke-width:1;"/><text fill="#000000" font-family="sans-serif" font-size="13" lengthAdjust="spacing" textLength="75.8164" x="911.66" y="434.9269">category_id</text><text fill="#000000" font-family="sans-serif" font-size="13" lengthAdjust="spacing" textLength="23.0356" x="895.9523" y="457.7968">0..*</text></g><!--reverse link CreditCardOperator to CreditCard--><g id="link_CreditCardOperator_CreditCard"><path codeLine="105" d="M1059.66,126.46 C1059.66,153.32 1059.66,181.72 1059.66,213.32 " fill="none" id="CreditCardOperator-backto-CreditCard" style="stroke:#181818;stroke-width:1;"/><polygon fill="#181818" points="1059.66,120.46,1055.66,129.46,1059.66,125.46,1063.66,129.46,1059.66,120.46" style="stroke:#181818;stroke-width:1;"/><text fill="#000000" font-family="sans-serif" font-size="13" lengthAdjust="spacing" textLength="74.2739" x="1060.66" y="179.5569">operator_id</text><text fill="#000000" font-family="sans-serif" font-size="13" lengthAdjust="spacing" textLength="23.0356" x="1035.7085" y="202.3714">0..*</text></g><!--reverse link CreditCard to CreditCardDebt--><g id="link_CreditCard_CreditCardDebt"><path codeLine="106" d="M1012.777,402.912 C1005.377,418.512 1002.88,423.75 995.66,438.86 C991.09,448.43 986.29,458.46 981.51,468.4 " fill="none" id="CreditCard-backto-CreditCardDebt" style="stroke:#181818;stroke-width:1;"/><polygon fill="#181818" points="1017.92,392.07,1011.7345,395.7767,1012.777,402.912,1018.9625,399.2053,1017.92,392.07" style="stroke:#181818;stroke-width:1;"/><text fill="#000000" font-family="sans-serif" font-size="13" lengthAdjust="spacing" textLength="38.0034" x="1002.66" y="434.9269">crc_id</text><text fill="#000000" font-family="sans-serif" font-size="13" lengthAdjust="spacing" textLength="23.0356" x="960.862" y="457.8242">0..*</text></g><!--reverse link CreditCardDebt to CreditCardPayment--><g id="link_CreditCardDebt_CreditCardPayment"><path codeLine="107" d="M847.3914,611.4838 C830.2514,620.9338 822.51,624.1 804.66,630.94 C586.93,714.32 312.99,754.83 176.74,770.97 " fill="none" id="CreditCardDebt-backto-CreditCardPayment" style="stroke:#181818;stroke-width:1;"/><polygon fill="#181818" points="857.9,605.69,850.7144,605.084,847.3914,611.4838,854.577,612.0898,857.9,605.69" style="stroke:#181818;stroke-width:1;"/><text fill="#000000" font-family="sans-serif" font-size="13" lengthAdjust="spacing" textLength="47.9629" x="711.66" y="674.0069">debt_id</text><text fill="#000000" font-family="sans-serif" font-size="13" lengthAdjust="spacing" textLength="23.0356" x="184.4374" y="766.6588">0..*</text></g><!--SRC=[fLJ1Rk8m4BtdAwmUaQZsZ7gX56ahjQL2h7gqN6UWben3nyvke-t- -mx194vi0cfpozZptXlFp9DQMCjUXDRWLjKEsD-CqJTMEPkm-wVLuS-8BT3_xETqwOzbOOw1Vrac0vGqWYDiVWRqLMXXv3wsd4yVF8hb0kMR-WtxtDl5ug7bknKMLYYC5T8fqkE9_zGoUcHIEDWKMF5O5ltFdtuz7W9YMvJ6TIJaO2MgNKtXvROQbY1BH6Ks2I5TAkk4Ass7Z4BeU4xIA7mtNSqFOJ1v73JmGLTBY4_M2Eyb65aTiNiD-OgoaAI1gu7MW2TGI3OWJxu-WWHguOdJgABBcj3ecldUNZgx0oCrGyYLcmdC5pj0uGhypaAqQ6cKmdESNGobDOsORt_LcMjTsFge6oPwnzT5YJnN6-Li1suhFdWEh-xYHMlhkDkd9MkHA2zRkQZRhd12yqJFbQ79r7eBfYwWHHYQXKRgiwZscMcrwJcauhumce5Cdqfg0aUz6O_PrO_hwz7LqI4dpDjXblKzxEPpJDTJhdBYQhJZH-wGD-bI4zQyGY8bzexX-uqvJ5ZV2OPlnzwGk1-tDLIJDGvmlkPWAfDfgRhFvVJsevkG9JmbcKjvWI44QMmqH5NlNTQBZuQVpa_wVm00]--></g></svg>